<svg width="156" height="61" viewBox="0 12 156 61" fill="none" xmlns="http://www.w3.org/2000/svg">
    <style>
        .logo-bg { fill: oklch(80% 0.16 20); }
        .logo-main { fill: oklch(56% 0.17 20); }
        svg {
            display: block;
            max-width: 100%;
            height: auto;
        }
    </style>
    
    <defs>
        <linearGradient id="orangeGradient" x1="0%" y1="50%" x2="100%" y2="50%">
            <stop offset="0%" stop-color="#e06065"/>
            <stop offset="100%" stop-color="#c43e49"/>
        </linearGradient>
    </defs>
    <path class="logo-bg" d="M140.095 47.3008L140.277 47.4941L140.295 47.5117C142.135 49.3069 144.795 50 147.836 50H156V62H0V47H3.6084C4.1373 47.5759 4.71631 48.0978 5.34961 48.5596L5.36816 48.5742L5.3877 48.5869C7.33591 49.9387 9.61933 50.5761 12.1436 50.5762C14.2153 50.5762 16.1322 50.1481 17.8389 49.2354L17.8555 49.2275L17.8711 49.2188C17.9817 49.157 18.0899 49.0924 18.1973 49.0273L18.2354 50H30.1279V47H32.8887C33.6087 47.6186 34.3967 48.1683 35.2539 48.6445C37.6129 49.9551 40.3101 50.5762 43.2812 50.5762C46.8072 50.5762 49.9419 49.8056 52.5908 48.1641L52.5996 48.1592L53.1064 47.8213C53.4757 47.5631 53.8258 47.289 54.1572 47H58.1309C58.3488 47.2686 58.5879 47.5223 58.8506 47.7588C60.6069 49.3394 62.9361 50 65.5645 50H80.3623C80.8707 51.337 81.6078 52.5549 82.5684 53.6436C83.7994 55.0387 85.4391 56.0523 87.377 56.7471L87.3887 56.751C89.4045 57.4602 91.8578 57.7763 94.6758 57.7764C97.4043 57.7764 99.9012 57.3618 102.129 56.4854C104.407 55.5889 106.267 54.1925 107.632 52.2822C108.151 51.556 108.564 50.7727 108.881 49.9395V50H121.137V47H124.577V50H136.833V47H139.838C139.921 47.102 140.006 47.2032 140.095 47.3008ZM95.7295 55.751C95.5564 55.7588 95.382 55.7646 95.2061 55.7686C95.382 55.7647 95.5564 55.7587 95.7295 55.751ZM96.4736 55.707C96.2834 55.722 96.0913 55.733 95.8975 55.7432C96.0913 55.733 96.2834 55.7219 96.4736 55.707ZM101.027 54.7637C100.783 54.8521 100.534 54.9339 100.281 55.0107C100.405 54.973 100.528 54.9341 100.65 54.8936L101.027 54.7637ZM85.3037 53.4424L85.54 53.6104C85.4599 53.5555 85.381 53.5001 85.3037 53.4434L85.0762 53.2695C85.1505 53.3281 85.2265 53.3856 85.3037 53.4424ZM12.4639 48.5723C12.3579 48.5751 12.2511 48.5762 12.1436 48.5762L12.4775 48.5713L12.4639 48.5723Z"/>
    <path fill="url(#orangeGradient)" d="M12.144 48.576C9.968 48.576 8.096 48.032 6.528 46.944C4.992 45.824 3.792 44.256 2.928 42.24C2.064 40.224 1.632 37.84 1.632 35.088C1.632 32.336 2.064 29.952 2.928 27.936C3.792 25.92 5.008 24.368 6.576 23.28C8.176 22.16 10.032 21.6 12.144 21.6C14 21.6 15.584 21.984 16.896 22.752C18.208 23.488 19.2 24.528 19.872 25.872V13.92H28.128V48H20.16L20.016 44.256C19.312 45.632 18.272 46.704 16.896 47.472C15.52 48.208 13.936 48.576 12.144 48.576ZM15.024 42.48C16.08 42.48 16.96 42.208 17.664 41.664C18.4 41.12 18.944 40.304 19.296 39.216C19.68 38.128 19.872 36.752 19.872 35.088C19.872 33.424 19.68 32.048 19.296 30.96C18.944 29.872 18.4 29.056 17.664 28.512C16.96 27.968 16.08 27.696 15.024 27.696C13.52 27.696 12.32 28.368 11.424 29.712C10.56 31.024 10.128 32.816 10.128 35.088C10.128 37.296 10.576 39.088 11.472 40.464C12.368 41.808 13.552 42.48 15.024 42.48ZM43.2814 48.576C40.5934 48.576 38.2414 48.016 36.2254 46.896C34.2094 45.776 32.6414 44.208 31.5214 42.192C30.4014 40.176 29.8414 37.808 29.8414 35.088C29.8414 32.368 30.4014 30.016 31.5214 28.032C32.6414 26.016 34.1934 24.448 36.1774 23.328C38.1934 22.176 40.5454 21.6 43.2334 21.6C45.9214 21.6 48.2414 22.176 50.1934 23.328C52.1774 24.448 53.6974 26.064 54.7534 28.176C55.8094 30.288 56.3374 32.8 56.3374 35.712V37.248H38.3854C38.4814 39.04 38.9774 40.384 39.8734 41.28C40.8014 42.144 41.9854 42.576 43.4254 42.576C44.5134 42.576 45.4254 42.368 46.1614 41.952C46.8974 41.504 47.4254 40.784 47.7454 39.792L56.0014 40.272C55.2974 42.96 53.8094 45.024 51.5374 46.464C49.2654 47.872 46.5134 48.576 43.2814 48.576ZM38.3854 32.544H47.9854C47.9214 30.848 47.4574 29.584 46.5934 28.752C45.7294 27.888 44.6094 27.456 43.2334 27.456C41.9214 27.456 40.8174 27.904 39.9214 28.8C39.0574 29.696 38.5454 30.944 38.3854 32.544ZM65.5646 48C63.2606 48 61.4686 47.424 60.1886 46.272C58.9086 45.12 58.2686 43.248 58.2686 40.656V13.92H66.5246V39.744C66.5246 40.576 66.7166 41.168 67.1006 41.52C67.4846 41.872 68.0286 42.048 68.7326 42.048H70.3166V48H65.5646ZM71.2436 48V22.176H79.4996V48H71.2436ZM71.0996 19.296V13.152H79.6436V19.296H71.0996ZM94.6763 55.776C91.9883 55.776 89.7803 55.472 88.0523 54.864C86.3563 54.256 85.0283 53.408 84.0683 52.32C83.1083 51.232 82.4203 50 82.0043 48.624L90.4523 48C90.6763 48.736 91.0923 49.296 91.7003 49.68C92.3403 50.096 93.3323 50.304 94.6763 50.304C96.1803 50.304 97.3323 49.92 98.1323 49.152C98.9323 48.384 99.3323 47.12 99.3323 45.36V43.056C98.7243 44.176 97.7483 45.088 96.4043 45.792C95.0603 46.496 93.5563 46.848 91.8923 46.848C89.8123 46.848 87.9563 46.336 86.3243 45.312C84.7243 44.288 83.4603 42.832 82.5323 40.944C81.6363 39.056 81.1883 36.832 81.1883 34.272C81.1883 31.808 81.6363 29.632 82.5323 27.744C83.4603 25.824 84.7243 24.32 86.3243 23.232C87.9243 22.144 89.7803 21.6 91.8923 21.6C93.8123 21.6 95.3963 22.016 96.6443 22.848C97.8923 23.68 98.8523 24.768 99.5243 26.112V22.176H107.684V45.216C107.684 47.584 107.124 49.552 106.004 51.12C104.884 52.688 103.348 53.856 101.396 54.624C99.4443 55.392 97.2043 55.776 94.6763 55.776ZM94.5803 41.04C96.0843 41.04 97.2683 40.448 98.1323 39.264C98.9963 38.048 99.4283 36.368 99.4283 34.224C99.4283 32.784 99.2363 31.552 98.8523 30.528C98.4683 29.504 97.9083 28.72 97.1723 28.176C96.4683 27.632 95.6043 27.36 94.5803 27.36C93.0443 27.36 91.8443 27.984 90.9803 29.232C90.1163 30.48 89.6843 32.144 89.6843 34.224C89.6843 36.304 90.1323 37.968 91.0283 39.216C91.9243 40.432 93.1083 41.04 94.5803 41.04ZM110.881 48V13.92H119.137V28.272L118.033 28.368C118.257 26.832 118.737 25.568 119.473 24.576C120.241 23.584 121.185 22.848 122.305 22.368C123.457 21.856 124.705 21.6 126.049 21.6C128.001 21.6 129.617 22.016 130.897 22.848C132.209 23.68 133.185 24.832 133.825 26.304C134.497 27.776 134.833 29.472 134.833 31.392V48H126.577V33.264C126.577 31.568 126.321 30.272 125.809 29.376C125.297 28.48 124.417 28.032 123.169 28.032C121.889 28.032 120.897 28.496 120.193 29.424C119.489 30.32 119.137 31.68 119.137 33.504V48H110.881ZM147.836 48C145.052 48 143.004 47.36 141.692 46.08C140.412 44.768 139.772 42.688 139.772 39.84V16.128H148.028V38.784C148.028 40.032 148.284 40.896 148.796 41.376C149.34 41.824 150.156 42.048 151.244 42.048H154.796V48H147.836ZM135.5 28.128V22.176H154.796V28.128H135.5Z"/>
    <path class="logo-main" d="M51.228 69.062C51.228 69.7727 51.15 70.3317 50.994 70.739C50.838 71.1377 50.6127 71.428 50.318 71.61C50.032 71.792 49.6767 71.909 49.252 71.961C48.836 72.0043 48.3637 72.026 47.835 72.026C47.5837 72.026 47.3193 72.0217 47.042 72.013C46.7733 72.013 46.5047 72.013 46.236 72.013C45.976 72.013 45.7377 72.0087 45.521 72C45.313 72 45.144 72 45.014 72V66.852C45.014 66.5747 45.0487 66.371 45.118 66.241C45.196 66.111 45.391 66.0373 45.703 66.02C45.8417 66.0113 46.0237 66.007 46.249 66.007C46.4743 66.007 46.7127 66.007 46.964 66.007C47.224 65.9983 47.4753 65.994 47.718 65.994C47.9607 65.994 48.1643 65.9983 48.329 66.007C48.8057 66.0243 49.2217 66.0633 49.577 66.124C49.941 66.1847 50.2443 66.3147 50.487 66.514C50.7383 66.7133 50.9247 67.0167 51.046 67.424C51.1673 67.8227 51.228 68.3687 51.228 69.062ZM46.015 71.441C46.0757 71.441 46.184 71.4453 46.34 71.454C46.5047 71.454 46.6823 71.454 46.873 71.454C47.0637 71.454 47.2457 71.4583 47.419 71.467C47.601 71.467 47.7397 71.467 47.835 71.467C48.277 71.467 48.6497 71.4367 48.953 71.376C49.2563 71.3153 49.499 71.2027 49.681 71.038C49.8717 70.8647 50.006 70.622 50.084 70.31C50.1707 69.9893 50.214 69.5733 50.214 69.062C50.214 68.3687 50.1403 67.8443 49.993 67.489C49.8543 67.125 49.616 66.878 49.278 66.748C48.9487 66.618 48.485 66.553 47.887 66.553C47.7657 66.553 47.5923 66.553 47.367 66.553C47.1503 66.553 46.9337 66.5573 46.717 66.566C46.5003 66.566 46.3313 66.5747 46.21 66.592C46.1493 66.6267 46.1017 66.6743 46.067 66.735C46.0323 66.787 46.015 66.8953 46.015 67.06V71.441ZM52.2366 72V66.436C52.2366 66.28 52.2583 66.1717 52.3016 66.111C52.345 66.0503 52.4403 66.02 52.5876 66.02H57.7486V66.592H53.2376V68.581H57.3716V69.153H53.2376V71.428H57.7486V72H52.2366ZM60.7506 72C60.4213 72 60.1699 71.922 59.9966 71.766C59.8233 71.6013 59.6803 71.3543 59.5676 71.025L57.8776 66.02H58.9436L60.3866 70.609C60.4559 70.817 60.5469 70.96 60.6596 71.038C60.7723 71.116 60.8893 71.155 61.0106 71.155H61.2056L62.9086 66.02H63.6756L61.5696 72H60.7506ZM64.4317 72V66.436C64.4317 66.28 64.4534 66.1717 64.4967 66.111C64.5401 66.0503 64.6354 66.02 64.7827 66.02H69.9437V66.592H65.4327V68.581H69.5667V69.153H65.4327V71.428H69.9437V72H64.4317ZM71.8537 66.02V71.428H75.8447V72H70.8657V66.449C70.8657 66.3537 70.8701 66.2757 70.8787 66.215C70.8874 66.1543 70.9177 66.1067 70.9697 66.072C71.0217 66.0373 71.1041 66.02 71.2167 66.02H71.8537ZM79.18 72.091C78.66 72.091 78.2007 72.052 77.802 71.974C77.4034 71.896 77.061 71.753 76.775 71.545C76.4977 71.3283 76.2854 71.0163 76.138 70.609C75.9907 70.2017 75.917 69.6643 75.917 68.997C75.917 68.321 75.995 67.7793 76.151 67.372C76.3157 66.956 76.5454 66.644 76.84 66.436C77.1347 66.228 77.4857 66.0893 77.893 66.02C78.309 65.9507 78.7727 65.916 79.284 65.916C79.7954 65.916 80.2504 65.955 80.649 66.033C81.0477 66.1023 81.3857 66.2453 81.663 66.462C81.949 66.67 82.1657 66.9777 82.313 67.385C82.4604 67.7923 82.534 68.3297 82.534 68.997C82.534 69.6817 82.4517 70.2277 82.287 70.635C82.131 71.0423 81.9057 71.3543 81.611 71.571C81.325 71.779 80.974 71.9177 80.558 71.987C80.1507 72.0563 79.6914 72.091 79.18 72.091ZM79.219 71.532C79.583 71.532 79.908 71.5017 80.194 71.441C80.48 71.3717 80.7184 71.2503 80.909 71.077C81.1084 70.9037 81.2557 70.6523 81.351 70.323C81.455 69.985 81.507 69.543 81.507 68.997C81.507 68.4597 81.455 68.0263 81.351 67.697C81.2557 67.359 81.1084 67.1033 80.909 66.93C80.7184 66.748 80.48 66.6267 80.194 66.566C79.908 66.5053 79.583 66.475 79.219 66.475C78.8464 66.475 78.517 66.5053 78.231 66.566C77.9537 66.6267 77.7197 66.748 77.529 66.93C77.3384 67.1033 77.191 67.359 77.087 67.697C76.9917 68.0263 76.944 68.4597 76.944 68.997C76.944 69.543 76.9917 69.985 77.087 70.323C77.191 70.6523 77.3384 70.9037 77.529 71.077C77.7197 71.2503 77.9537 71.3717 78.231 71.441C78.517 71.5017 78.8464 71.532 79.219 71.532ZM83.4783 72C83.4783 71.1247 83.4783 70.2493 83.4783 69.374C83.4783 68.4987 83.4783 67.6277 83.4783 66.761C83.4783 66.4663 83.5303 66.2713 83.6343 66.176C83.7469 66.0807 83.9289 66.0287 84.1803 66.02C84.5183 66.0113 84.8909 66.007 85.2983 66.007C85.7143 66.007 86.1259 66.007 86.5333 66.007C86.9493 66.007 87.3133 66.0157 87.6253 66.033C87.9806 66.0503 88.2796 66.124 88.5223 66.254C88.7736 66.3753 88.9599 66.5617 89.0813 66.813C89.2113 67.0557 89.2763 67.3677 89.2763 67.749C89.2763 68.1823 89.1983 68.542 89.0423 68.828C88.8949 69.114 88.6826 69.322 88.4053 69.452C88.1366 69.582 87.8116 69.647 87.4303 69.647C86.9969 69.647 86.5506 69.647 86.0913 69.647C85.6406 69.647 85.1899 69.647 84.7393 69.647C84.7393 69.4997 84.7393 69.387 84.7393 69.309C84.7479 69.231 84.7653 69.1747 84.7913 69.14C84.8259 69.1053 84.8823 69.088 84.9603 69.088C85.0989 69.088 85.2896 69.088 85.5323 69.088C85.7836 69.088 86.0479 69.088 86.3253 69.088C86.6026 69.088 86.8539 69.088 87.0793 69.088C87.2873 69.088 87.4779 69.049 87.6513 68.971C87.8333 68.893 87.9763 68.7543 88.0803 68.555C88.1929 68.3557 88.2493 68.0827 88.2493 67.736C88.2493 67.398 88.1799 67.1337 88.0413 66.943C87.9026 66.7437 87.6729 66.6353 87.3523 66.618C87.0836 66.592 86.7846 66.579 86.4553 66.579C86.1259 66.5703 85.8139 66.5703 85.5193 66.579C85.2333 66.579 84.9906 66.5833 84.7913 66.592C84.7479 66.592 84.6829 66.6137 84.5963 66.657C84.5183 66.6917 84.4793 66.774 84.4793 66.904C84.4793 67.7533 84.4793 68.6027 84.4793 69.452C84.4793 70.2927 84.4793 71.142 84.4793 72H83.4783ZM90.1677 72V66.436C90.1677 66.28 90.1893 66.1717 90.2327 66.111C90.276 66.0503 90.3713 66.02 90.5187 66.02H95.6797V66.592H91.1687V68.581H95.3027V69.153H91.1687V71.428H95.6797V72H90.1677ZM100.229 69.543C100.229 69.543 100.107 69.543 99.8647 69.543C99.622 69.543 99.297 69.543 98.8897 69.543C98.4823 69.543 98.0317 69.5473 97.5377 69.556V72H96.5367V66.696C96.5367 66.4447 96.5887 66.2713 96.6927 66.176C96.8053 66.0807 96.9873 66.0287 97.2387 66.02C97.3687 66.0113 97.5377 66.007 97.7457 66.007C97.9623 66.007 98.2007 66.007 98.4607 66.007C98.7207 65.9983 98.985 65.994 99.2537 65.994C99.531 65.994 99.7953 65.994 100.047 65.994C100.307 65.994 100.536 65.9983 100.736 66.007C100.935 66.0157 101.091 66.0243 101.204 66.033C101.654 66.0763 101.984 66.228 102.192 66.488C102.4 66.7393 102.504 67.1163 102.504 67.619C102.504 68.0177 102.447 68.334 102.335 68.568C102.231 68.802 102.07 68.9753 101.854 69.088C101.828 69.114 101.784 69.1357 101.724 69.153C101.672 69.1617 101.615 69.166 101.555 69.166V69.192C101.589 69.192 101.628 69.192 101.672 69.192C101.715 69.192 101.75 69.192 101.776 69.192C102.105 69.2527 102.304 69.387 102.374 69.595C102.443 69.7943 102.478 69.998 102.478 70.206V71.688C102.478 71.7747 102.486 71.8483 102.504 71.909C102.521 71.961 102.534 71.9913 102.543 72H101.841C101.719 72 101.624 71.9783 101.555 71.935C101.485 71.8917 101.451 71.7877 101.451 71.623V70.245C101.451 69.9763 101.39 69.7943 101.269 69.699C101.156 69.595 100.952 69.543 100.658 69.543H100.229ZM97.5377 68.997C97.659 68.997 97.8497 69.0013 98.1097 69.01C98.3697 69.01 98.6513 69.01 98.9547 69.01C99.2667 69.01 99.5527 69.01 99.8127 69.01C100.073 69.01 100.263 69.01 100.385 69.01C100.671 69.01 100.922 68.9233 101.139 68.75C101.364 68.568 101.477 68.2343 101.477 67.749C101.477 67.4197 101.412 67.1597 101.282 66.969C101.16 66.7697 100.961 66.6527 100.684 66.618C100.502 66.592 100.276 66.579 100.008 66.579C99.739 66.5703 99.4617 66.5703 99.1757 66.579C98.8897 66.579 98.6253 66.5833 98.3827 66.592C98.14 66.592 97.958 66.592 97.8367 66.592C97.8107 66.592 97.7543 66.6093 97.6677 66.644C97.581 66.67 97.5377 66.7567 97.5377 66.904V68.997ZM103.747 65.63H104.345L103.643 67.541H103.188L103.747 65.63ZM104.687 71.09C104.869 71.2113 105.103 71.3023 105.389 71.363C105.683 71.415 105.987 71.4497 106.299 71.467C106.619 71.4757 106.897 71.48 107.131 71.48C107.217 71.48 107.317 71.48 107.43 71.48C107.542 71.48 107.642 71.4757 107.729 71.467C108.075 71.4583 108.379 71.4193 108.639 71.35C108.899 71.272 109.102 71.1463 109.25 70.973C109.397 70.791 109.471 70.5353 109.471 70.206C109.471 69.8073 109.367 69.5473 109.159 69.426C108.951 69.3047 108.647 69.244 108.249 69.244C108.119 69.244 107.98 69.244 107.833 69.244C107.685 69.244 107.529 69.244 107.365 69.244C107.2 69.244 107.009 69.244 106.793 69.244C106.55 69.244 106.303 69.2353 106.052 69.218C105.8 69.192 105.571 69.1357 105.363 69.049C105.155 68.9537 104.99 68.8107 104.869 68.62C104.747 68.4207 104.687 68.139 104.687 67.775C104.687 67.3503 104.76 67.0167 104.908 66.774C105.064 66.5313 105.28 66.3537 105.558 66.241C105.835 66.1283 106.151 66.0547 106.507 66.02C106.871 65.9853 107.256 65.968 107.664 65.968C107.906 65.968 108.179 65.9723 108.483 65.981C108.795 65.9897 109.085 66.0113 109.354 66.046C109.631 66.0807 109.848 66.1413 110.004 66.228C110.142 66.2453 110.246 66.2887 110.316 66.358C110.394 66.4273 110.433 66.514 110.433 66.618C110.433 66.6527 110.433 66.696 110.433 66.748C110.433 66.7913 110.433 66.8347 110.433 66.878C110.433 66.9213 110.433 66.9517 110.433 66.969C110.355 66.8823 110.225 66.813 110.043 66.761C109.861 66.709 109.653 66.67 109.419 66.644C109.193 66.6093 108.972 66.5877 108.756 66.579C108.539 66.5617 108.361 66.553 108.223 66.553H107.456C107.144 66.553 106.853 66.579 106.585 66.631C106.316 66.683 106.099 66.7913 105.935 66.956C105.779 67.112 105.701 67.3633 105.701 67.71C105.701 67.9787 105.753 68.178 105.857 68.308C105.969 68.438 106.125 68.5247 106.325 68.568C106.524 68.6027 106.762 68.62 107.04 68.62C107.378 68.62 107.677 68.62 107.937 68.62C108.197 68.62 108.409 68.62 108.574 68.62C108.955 68.62 109.293 68.6547 109.588 68.724C109.882 68.7847 110.112 68.9277 110.277 69.153C110.441 69.3697 110.524 69.712 110.524 70.18C110.524 70.6393 110.42 71.0033 110.212 71.272C110.012 71.5407 109.735 71.7313 109.38 71.844C109.033 71.9567 108.634 72.026 108.184 72.052C107.967 72.0607 107.759 72.065 107.56 72.065C107.36 72.0737 107.152 72.0737 106.936 72.065C106.736 72.065 106.507 72.0563 106.247 72.039C105.987 72.0217 105.735 71.9957 105.493 71.961C105.259 71.9177 105.064 71.857 104.908 71.779C104.76 71.6923 104.687 71.5797 104.687 71.441V71.09Z"/>
    <path class="logo-main" d="M41 70H0V69H41V70ZM156 70H114V69H156V70Z" />
</svg>

